<?xml version="1.0" encoding="utf-8" ?>
<svg xmlns="http://www.w3.org/2000/svg" version="1.1" viewBox="0 0 264.58333 215.02899">
    <path fill="#ffffff" d="m 83.209466,215.02899 c 99.849454,0 154.449394,-82.72014 154.449394,-154.449381 0,-2.349535 -0.0479,-4.688469 -0.15324,-7.016829 10.5993,-7.662402 19.81219,-17.22454 27.07772,-28.109611 -9.72618,4.323335 -20.19319,7.233786 -31.17352,8.546137 11.20787,-6.720495 19.8122,-17.351549 23.87095,-30.0252209 C 246.79258,10.191854 235.17726,14.71099 222.81051,17.150465 212.90442,6.5987778 198.80198,8.6957294e-6 183.18613,8.6957294e-6 153.20854,8.6957294e-6 128.89838,24.310169 128.89838,54.277164 c 0,4.259826 0.47625,8.403254 1.4076,12.377321 C 85.188798,64.384343 45.183389,42.783551 18.412595,9.9378543 13.750584,17.960099 11.062401,27.278811 11.062401,37.221948 c 0,18.833233 9.583295,35.459815 24.156684,45.185994 -8.905953,-0.275166 -17.272165,-2.719951 -24.585327,-6.789278 -0.008,0.227755 -0.008,0.449801 -0.008,0.693217 0,26.289249 18.711525,48.239299 43.550852,53.213509 -4.56146,1.24356 -9.361054,1.91031 -14.314098,1.91031 -3.492535,0 -6.895111,-0.34374 -10.202429,-0.97895 6.910978,21.56904 26.950711,37.26427 50.710538,37.70349 -18.579234,14.5628 -41.984501,23.23594 -67.421786,23.23594 -4.3762609,0 -8.6995872,-0.24892 -12.948839043209,-0.75144 C 24.024415,206.04366 52.552068,215.02899 83.212272,215.02899" />
</svg>
